<svg xmlns="http://www.w3.org/2000/svg" viewBox="0 0 64 64" role="img" aria-label="Python favicon">
  <defs>
    <linearGradient id="g1" x1="0" x2="1" y1="0" y2="1">
      <stop offset="0" stop-color="#3776ab"/>
      <stop offset="1" stop-color="#2b5d86"/>
    </linearGradient>
    <linearGradient id="g2" x1="1" x2="0" y1="0" y2="1">
      <stop offset="0" stop-color="#ffd343"/>
      <stop offset="1" stop-color="#f2c12e"/>
    </linearGradient>
  </defs>
  <rect width="64" height="64" rx="14" fill="#0f172a"/>
  <path d="M34 10h-9c-6 0-9 3-9 9v7h18v2H15c-4 0-7 3-7 7v5c0 6 3 9 9 9h9c6 0 9-3 9-9v-7H17v-2h19c4 0 7-3 7-7v-5c0-6-3-9-9-9z" fill="url(#g1)"/>
  <circle cx="24" cy="17" r="2" fill="#fff"/>
  <path d="M30 54h9c6 0 9-3 9-9v-7H30v-2h19c4 0 7-3 7-7v-5c0-6-3-9-9-9h-9c-6 0-9 3-9 9v7h18v2H29c-4 0-7 3-7 7v5c0 6 3 9 9 9z" fill="url(#g2)"/>
  <circle cx="40" cy="47" r="2" fill="#3b2f00"/>
</svg>
